<svg viewBox="0 0 41 32" fill="none" xmlns="http://www.w3.org/2000/svg"
     stroke="hsl(350, 67%, 50%)" stroke-width="2" stroke-linejoin="round">
  <path d="M20.5 31L1 7M20.5 31L40 7M20.5 31L7.5 9M20.5 31L16.1667 9M20.5 31L24.8333 9M20.5 31L33.5 9M1 7L5.875 1M1 7L7.5 9M5.875 1L10.75 7M5.875 1H10.75H15.625M10.75 7L15.625 1M10.75 7L7.5 9M10.75 7L16.1667 9M15.625 1L20.5 7M20.5 7L25.375 1M20.5 7L16.1667 9M20.5 7L24.8333 9M25.375 1L30.25 7M25.375 1H30.25H35.125M30.25 7L35.125 1M30.25 7L24.8333 9M30.25 7L33.5 9M35.125 1L40 7M40 7L33.5 9"></path>
</svg>
